<?xml version="1.0" encoding="UTF-8"?>
<!DOCTYPE svg PUBLIC "-//W3C//DTD SVG 1.1//EN" "http://www.w3.org/Graphics/SVG/1.1/DTD/svg11.dtd">
<!-- Creator: CorelDRAW 2020 (64-Bit Evaluation Version) -->
<svg xmlns="http://www.w3.org/2000/svg" xml:space="preserve" width="154mm" height="42mm" version="1.1" style="shape-rendering:geometricPrecision; text-rendering:geometricPrecision; image-rendering:optimizeQuality; fill-rule:evenodd; clip-rule:evenodd"
viewBox="0 0 15400 4200"
 xmlns:xlink="http://www.w3.org/1999/xlink"
 xmlns:xodm="http://www.corel.com/coreldraw/odm/2003">
 <defs>
  <style type="text/css">
   <![CDATA[
    .str0 {stroke:#FEFEFE;stroke-width:105.83;stroke-miterlimit:22.9256}
    .fil5 {fill:none}
    .fil3 {fill:#FEFEFE}
    .fil4 {fill:#EF7F1A}
    .fil2 {fill:#0A069E}
    .fil0 {fill:#FEFEFE;fill-rule:nonzero}
    .fil1 {fill:#EF7F1A;fill-rule:nonzero}
   ]]>
  </style>
    <clipPath id="id0">
     <path d="M3967.67 1893.53c-54.37,957.2 -838.01,1716.48 -1796.88,1716.48 -958.86,0 -1742.5,-759.28 -1796.87,-1716.48l-3.13 -1157.45c0,-190.55 153.96,-346.45 342.12,-346.45l2915.76 0c188.17,0 342.12,155.9 342.12,346.45l-3.12 1157.45z"/>
    </clipPath>
 </defs>
 <g id="Layer_x0020_1">
  <metadata id="CorelCorpID_0Corel-Layer"/>
  <g id="_1222448529136">
   <path class="fil0" d="M4517.66 3607.63l-2.03 -1438.61 1069.53 0 4.06 267.17 -750.91 0 4.06 904.27 771.2 0 2.03 267.17 -1097.94 0zm298.32 -602.16l2.04 -256.9 683.93 2.06 0 256.89 -685.97 -2.05zm1039.1 602.16l0 -1105.68 302.39 0 0 306.22 -56.83 -92.48c39.23,-73.98 95.39,-130.85 168.45,-170.57 73.06,-39.74 156.27,-59.61 249.62,-59.61 86.59,0 164.05,17.47 232.38,52.41 68.32,34.94 122.1,88.37 161.34,160.3 39.23,71.93 58.86,164.07 58.86,276.42l0 632.99 -316.6 0 0 -583.67c0,-89.05 -19.28,-154.82 -57.84,-197.29 -38.56,-42.48 -93.02,-63.71 -163.38,-63.71 -50.06,0 -95.04,10.62 -134.95,31.86 -39.92,21.23 -71.03,53.77 -93.36,97.61 -22.32,43.85 -33.49,100.02 -33.49,168.52l0 546.68 -316.59 0zm1923.94 415.14c-102.83,0 -201.94,-12.67 -297.32,-38.02 -95.38,-25.34 -174.87,-63.37 -238.46,-114.06l125.83 -230.17c46,38.36 104.52,68.85 175.55,91.45 71.03,22.61 141.05,33.91 210.05,33.91 112.3,0 193.81,-25.35 244.55,-76.04 50.73,-50.7 76.1,-126.05 76.1,-226.07l0 -166.46 20.3 -277.45 -4.06 -279.51 0 -238.4 300.36 0 0 920.72c0,205.52 -52.77,356.91 -158.3,454.19 -105.53,97.28 -257.07,145.91 -454.6,145.91zm-48.7 -468.58c-101.48,0 -193.15,-22.26 -275,-66.78 -81.85,-44.54 -147.47,-106.87 -196.86,-187.02 -49.39,-80.16 -74.07,-173.67 -74.07,-280.53 0,-108.24 24.68,-202.44 74.07,-282.59 49.39,-80.15 115.01,-142.15 196.86,-185.99 81.85,-43.85 173.52,-65.77 275,-65.77 92,0 173.18,18.84 243.53,56.52 70.35,37.68 125.15,95.91 164.39,174.69 39.24,78.78 58.85,179.82 58.85,303.14 0,121.94 -19.61,222.3 -58.85,301.08 -39.24,78.78 -94.04,137.35 -164.39,175.72 -70.35,38.35 -151.53,57.53 -243.53,57.53zm62.91 -263.05c55.47,0 104.85,-11.31 148.15,-33.91 43.29,-22.61 77.12,-54.46 101.48,-95.57 24.35,-41.1 36.52,-88.37 36.52,-141.8 0,-54.81 -12.17,-102.42 -36.52,-142.84 -24.36,-40.42 -58.19,-71.93 -101.48,-94.53 -43.3,-22.61 -92.68,-33.92 -148.15,-33.92 -55.48,0 -104.86,11.31 -148.16,33.92 -43.29,22.6 -77.45,54.11 -102.49,94.53 -25.02,40.42 -37.54,88.03 -37.54,142.84 0,53.43 12.52,100.7 37.54,141.8 25.04,41.11 59.2,72.96 102.49,95.57 43.3,22.6 92.68,33.91 148.16,33.91zm897.02 316.49l-4.05 -1105.68 314.56 2.06 2.03 1103.62 -312.54 0zm154.24 -1259.81c-58.17,0 -105.53,-17.13 -142.06,-51.39 -36.53,-34.24 -54.8,-76.72 -54.8,-127.41 0,-50.69 18.27,-93.17 54.8,-127.42 36.53,-34.26 83.89,-51.39 142.06,-51.39 58.18,0 105.53,16.11 142.06,48.3 36.54,32.2 54.8,73.65 54.8,124.34 0,53.44 -17.93,97.62 -53.78,132.56 -35.85,34.94 -83.54,52.41 -143.08,52.41zm452.58 1259.81l0 -1105.68 302.39 0 0 306.22 -56.82 -92.48c39.23,-73.98 95.38,-130.85 168.44,-170.57 73.06,-39.74 156.27,-59.61 249.63,-59.61 86.59,0 164.04,17.47 232.37,52.41 68.32,34.94 122.11,88.37 161.35,160.3 39.23,71.93 58.85,164.07 58.85,276.42l0 632.99 -316.6 0 0 -583.67c0,-89.05 -19.28,-154.82 -57.84,-197.29 -38.56,-42.48 -93.02,-63.71 -163.38,-63.71 -50.06,0 -95.04,10.62 -134.95,31.86 -39.91,21.23 -71.03,53.77 -93.36,97.61 -22.32,43.85 -33.48,100.02 -33.48,168.52l0 546.68 -316.6 0zm1952.35 16.44c-124.47,0 -233.72,-24.66 -327.75,-73.98 -94.03,-49.33 -166.76,-116.8 -218.17,-202.44 -51.42,-85.63 -77.12,-183.25 -77.12,-292.86 0,-110.98 25.37,-209.28 76.1,-294.91 50.74,-85.63 120.08,-152.77 208.02,-201.41 87.95,-48.64 187.39,-72.96 298.34,-72.96 106.88,0 203.28,22.95 289.2,68.85 85.91,45.9 153.9,111.66 203.96,197.29 50.06,85.64 75.09,188.05 75.09,307.25 0,12.33 -0.68,26.38 -2.03,42.13 -1.35,15.76 -2.71,30.49 -4.06,44.19l-886.88 0 0 -187.02 720.46 0 -121.77 55.49c0,-57.54 -11.49,-107.55 -34.5,-150.03 -23,-42.47 -54.79,-75.7 -95.38,-99.67 -40.59,-23.98 -87.95,-35.97 -142.06,-35.97 -54.12,0 -101.81,11.99 -143.08,35.97 -41.27,23.97 -73.4,57.54 -96.4,100.7 -23,43.16 -34.51,94.19 -34.51,153.11l0 49.32c0,60.29 13.2,113.38 39.58,159.28 26.38,45.9 63.59,80.84 111.62,104.81 48.03,23.98 104.52,35.97 169.46,35.97 58.18,0 109.26,-8.91 153.23,-26.72 43.97,-17.81 84.22,-44.53 120.76,-80.15l168.44 184.96c-50.06,57.55 -112.97,101.74 -188.74,132.56 -75.77,30.83 -163.03,46.24 -261.81,46.24zm1280.6 0c-124.47,0 -233.72,-24.66 -327.76,-73.98 -94.03,-49.33 -166.75,-116.8 -218.17,-202.44 -51.41,-85.63 -77.11,-183.25 -77.11,-292.86 0,-110.98 25.36,-209.28 76.1,-294.91 50.74,-85.63 120.07,-152.77 208.02,-201.41 87.94,-48.64 187.39,-72.96 298.33,-72.96 106.89,0 203.29,22.95 289.2,68.85 85.91,45.9 153.9,111.66 203.96,197.29 50.06,85.64 75.1,188.05 75.1,307.25 0,12.33 -0.68,26.38 -2.03,42.13 -1.36,15.76 -2.71,30.49 -4.06,44.19l-886.88 0 0 -187.02 720.46 0 -121.77 55.49c0,-57.54 -11.5,-107.55 -34.5,-150.03 -23,-42.47 -54.79,-75.7 -95.39,-99.67 -40.58,-23.98 -87.94,-35.97 -142.06,-35.97 -54.11,0 -101.81,11.99 -143.07,35.97 -41.27,23.97 -73.4,57.54 -96.41,100.7 -23,43.16 -34.5,94.19 -34.5,153.11l0 49.32c0,60.29 13.2,113.38 39.58,159.28 26.38,45.9 63.59,80.84 111.62,104.81 48.03,23.98 104.51,35.97 169.46,35.97 58.18,0 109.26,-8.91 153.22,-26.72 43.98,-17.81 84.22,-44.53 120.76,-80.15l168.44 184.96c-50.06,57.55 -112.97,101.74 -188.73,132.56 -75.77,30.83 -163.04,46.24 -261.81,46.24zm738.73 -16.44l0 -1105.68 302.39 0 0 312.38 -42.62 -90.42c32.47,-78.1 84.56,-137.35 156.27,-177.77 71.71,-40.42 158.98,-60.63 261.8,-60.63l0 295.95c-13.53,-1.37 -25.7,-2.4 -36.53,-3.09 -10.82,-0.68 -22.32,-1.03 -34.5,-1.03 -86.59,0 -156.6,25.01 -210.05,75.02 -53.44,50.01 -80.16,127.76 -80.16,233.26l0 522.01 -316.6 0zm1242.03 16.44c-93.35,0 -182.99,-11.3 -268.9,-33.9 -85.92,-22.61 -153.91,-51.04 -203.97,-85.3l105.54 -230.17c50.06,31.51 109.25,57.2 177.58,77.06 68.32,19.87 135.64,29.81 201.93,29.81 73.06,0 124.81,-8.91 155.26,-26.73 30.44,-17.81 45.66,-42.47 45.66,-73.98 0,-26.03 -11.84,-45.55 -35.51,-58.57 -23.68,-13.02 -55.14,-22.95 -94.38,-29.8 -39.23,-6.85 -82.19,-13.7 -128.87,-20.55 -46.68,-6.85 -93.69,-16.1 -141.05,-27.74 -47.35,-11.65 -90.65,-29.13 -129.88,-52.42 -39.24,-23.28 -70.69,-54.8 -94.37,-94.53 -23.68,-39.74 -35.52,-91.11 -35.52,-154.14 0,-69.87 19.96,-131.53 59.87,-184.97 39.91,-53.43 97.75,-95.56 173.52,-126.39 75.77,-30.82 166.41,-46.24 271.95,-46.24 74.41,0 150.18,8.22 227.3,24.67 77.12,16.44 141.39,40.41 192.8,71.93l-105.54 228.12c-52.76,-31.52 -105.86,-53.1 -159.3,-64.74 -53.45,-11.65 -105.2,-17.47 -155.26,-17.47 -70.35,0 -121.77,9.6 -154.24,28.78 -32.47,19.18 -48.71,43.84 -48.71,73.98 0,27.41 11.84,47.95 35.52,61.65 23.68,13.71 55.13,24.66 94.37,32.89 39.24,8.22 82.19,15.41 128.87,21.58 46.68,6.16 93.69,15.41 141.05,27.74 47.35,12.33 90.31,29.8 128.87,52.41 38.56,22.6 70.01,53.43 94.37,92.48 24.36,39.05 36.53,90.08 36.53,153.11 0,68.51 -20.29,129.13 -60.89,181.88 -40.58,52.75 -99.1,94.19 -175.55,124.34 -76.44,30.14 -169.45,45.21 -279.05,45.21z"/>
   <path class="fil0" d="M4515.63 1839.08l0 -1474.34 630.19 0c130.35,0 242.66,21.42 336.95,64.24 94.28,42.82 167.08,104.26 218.38,184.29 51.31,80.03 76.95,175.52 76.95,286.45 0,109.52 -25.64,204.29 -76.95,284.33 -51.3,80.04 -124.1,141.47 -218.38,184.29 -94.29,42.83 -206.6,64.24 -336.95,64.24l-443.01 0 149.75 -153.75 0 560.25 -336.93 0zm336.93 -522.34l-149.75 -162.17 424.3 0c103.99,0 181.64,-22.48 232.94,-67.41 51.31,-44.93 76.96,-107.41 76.96,-187.44 0,-81.45 -25.65,-144.64 -76.96,-189.57 -51.3,-44.93 -128.95,-67.39 -232.94,-67.39l-424.3 0 149.75 -162.18 0 836.16zm1672.22 539.19c-120.64,-1.4 -226.71,-27.03 -318.22,-76.88 -91.51,-49.85 -163.62,-118.3 -216.3,-205.36 -52.69,-87.05 -79.04,-187.44 -79.04,-301.18 -1.39,-113.74 24.96,-214.48 79.04,-302.24 54.07,-87.76 126.87,-156.56 218.38,-206.41 91.51,-49.85 196.2,-74.06 314.06,-72.66 119.25,-1.4 225.32,22.81 318.22,72.66 92.9,49.85 165.35,118.65 217.35,206.41 51.99,87.76 77.99,188.5 77.99,302.24 1.39,112.33 -24.27,212.37 -76.95,300.14 -52.69,87.75 -125.49,156.55 -218.39,206.4 -92.9,49.85 -198.28,75.48 -316.14,76.88zm0 -269.6c54.08,0 102.61,-12.64 145.59,-37.91 42.98,-25.27 76.96,-61.43 101.91,-108.47 24.96,-47.04 37.44,-102.85 37.44,-167.44 0,-66 -12.48,-122.16 -37.44,-168.5 -24.95,-46.33 -58.93,-82.13 -101.91,-107.41 -42.98,-25.28 -92.21,-37.91 -147.67,-37.91 -52.69,0 -100.52,12.63 -143.51,37.91 -42.98,25.28 -77.31,61.08 -102.95,107.41 -25.65,46.34 -38.48,102.5 -38.48,168.5 0,64.59 12.83,120.4 38.48,167.44 25.64,47.04 59.62,83.55 101.91,109.53 42.29,25.97 91.17,38.25 146.63,36.85zm1370.63 269.6c-120.63,0 -228.09,-24.93 -322.37,-74.77 -94.29,-49.85 -168.13,-119.01 -221.51,-207.47 -53.39,-88.45 -80.08,-188.85 -80.08,-301.18 0,-113.74 26.69,-214.48 80.08,-302.24 53.38,-87.76 127.22,-156.56 221.51,-206.41 94.28,-49.85 201.74,-74.77 322.37,-74.77 117.87,0 220.47,24.92 307.83,74.77 87.35,49.85 151.83,121.11 193.42,213.78l-251.66 136.91c-29.12,-53.36 -65.52,-92.67 -109.19,-117.95 -43.68,-25.28 -91.17,-37.91 -142.48,-37.91 -55.46,0 -105.37,12.63 -149.74,37.91 -44.38,25.28 -79.39,61.08 -105.04,107.41 -25.65,46.34 -38.47,102.5 -38.47,168.5 0,66 12.82,122.16 38.47,168.49 25.65,46.34 60.66,82.15 105.04,107.42 44.37,25.27 94.28,37.91 149.74,37.91 51.31,0 98.8,-12.28 142.48,-36.85 43.67,-24.58 80.07,-64.24 109.19,-119.01l251.66 139.01c-41.59,91.27 -106.07,161.83 -193.42,211.68 -87.36,49.84 -189.96,74.77 -307.83,74.77zm948.43 -248.53l8.32 -400.18 522.04 -501.28 386.86 0 -501.25 516.02 -168.47 139.01 -247.5 246.43zm-268.31 231.68l0 -1562.8 324.46 0 0 1562.8 -324.46 0zm834.03 0l-378.54 -476 203.83 -254.85 567.81 730.85 -393.1 0z"/>
   <path class="fil1" d="M9942.01 1839.08l-4.16 -1133.14 322.38 2.11 2.08 1131.03 -320.3 0zm158.06 -1291.1c-59.61,0 -108.15,-17.55 -145.58,-52.66 -37.44,-35.1 -56.16,-78.63 -56.16,-130.58 0,-51.95 18.72,-95.48 56.16,-130.58 37.43,-35.11 85.97,-52.66 145.58,-52.66 59.63,0 108.16,16.5 145.6,49.49 37.44,33.01 56.16,75.48 56.16,127.43 0,54.77 -18.38,100.05 -55.12,135.85 -36.74,35.81 -85.62,53.71 -146.64,53.71zm921.39 1307.95c-131.73,0 -234.33,-34.06 -307.82,-102.16 -73.49,-68.1 -110.24,-169.54 -110.24,-304.34l0 -994.13 324.47 0 0 989.92c0,47.74 12.48,84.59 37.43,110.57 24.96,25.98 58.94,38.97 101.92,38.97 51.3,0 94.98,-14.04 131.03,-42.13l87.36 231.68c-33.28,23.88 -73.15,41.78 -119.6,53.72 -46.45,11.93 -94.63,17.9 -144.55,17.9zm-590.68 -897.24l0 -252.75 775.79 0 0 252.75 -775.79 0z"/>
   <path class="fil2" d="M3967.67 1893.53c-54.37,957.2 -838.01,1716.48 -1796.88,1716.48 -958.86,0 -1742.5,-759.28 -1796.87,-1716.48l-3.13 -1157.45c0,-190.55 153.96,-346.45 342.12,-346.45l2915.76 0c188.17,0 342.12,155.9 342.12,346.45l-3.12 1157.45z"/>
   <g style="clip-path:url(#id0)">
    <g>
     <rect class="fil3" transform="matrix(1.88767E-14 -0.763844 0.735078 2.0864E-14 2222.14 1330.59)" width="389.35" height="1807.7"/>
     <rect class="fil3" transform="matrix(1.88767E-14 -0.763844 0.735078 2.0864E-14 2222.14 2469)" width="389.35" height="1807.7"/>
     <rect class="fil4" transform="matrix(1.01473E-14 -0.763844 0.395148 2.0864E-14 2340.74 1891.26)" width="389.35" height="1807.7"/>
     <rect class="fil4" transform="matrix(4.31745E-15 -0.763844 0.168126 2.0864E-14 772.252 1326.14)" width="389.35" height="1807.7"/>
     <path class="fil3" d="M773.58 2466.01l0 -312.23 -1.33 0 0 -309.25 1.33 0 0 -3.02 303.92 0 0 3.02 514.69 0c140.77,0 255.96,-116.64 255.96,-259.2l0 0c0,-142.55 -115.18,-259.2 -255.96,-259.2l-360.69 0 0 -297.4 372.92 0c303.63,0 552.05,251.56 552.05,559.03l0 6.99c0,307.48 -248.42,559.03 -552.05,559.03l-526.92 0 0 312.23 -303.92 0z"/>
    </g>
   </g>
   <path class="fil5 str0" d="M3967.67 1893.53c-54.37,957.2 -838.01,1716.48 -1796.88,1716.48 -958.86,0 -1742.5,-759.28 -1796.87,-1716.48l-3.13 -1157.45c0,-190.55 153.96,-346.45 342.12,-346.45l2915.76 0c188.17,0 342.12,155.9 342.12,346.45l-3.12 1157.45z"/>
  </g>
 </g>
</svg>
