<?xml version="1.0" encoding="utf-8"?>
<!-- Generator: Adobe Illustrator 25.1.0, SVG Export Plug-In . SVG Version: 6.00 Build 0)  -->
<svg version="1.1" id="Layer_1" xmlns="http://www.w3.org/2000/svg" xmlns:xlink="http://www.w3.org/1999/xlink" x="0px" y="0px"
	 viewBox="0 0 800 800" style="enable-background:new 0 0 800 800;" xml:space="preserve">
<style type="text/css">
	.st0{fill:#0A069E;}
	.st1{fill:#EF7F1A;}
	.st2{fill-rule:evenodd;clip-rule:evenodd;fill:#FFFFFF;}
	.st3{fill-rule:evenodd;clip-rule:evenodd;fill:#EF7F1A;}
</style>
<circle class="st0" cx="400.5" cy="400" r="318.5"/>
<g>
	<path class="st1" d="M318.57,600.58c-6.98-2.8-9.67-8.02-9.35-15.42c0.32-7.41,0.07-14.84,0.07-22.09
		c-42.13-4.14-66.11-26.91-72.67-68.84c-6.86,0-14.01,0.04-21.15-0.03c-2.07-0.02-4.24-0.03-6.19-0.62
		c-5.42-1.64-8.9-7.3-8.19-12.79c0.74-5.66,5.25-10.17,11.02-10.4c6.78-0.27,13.58-0.11,20.37-0.13c1.4,0,2.81,0,4.41,0
		c0-18.81,0-37.17,0-56.18c-4.16,0-8.4,0-12.65,0c-3.66,0-7.32,0.08-10.97-0.03c-7.01-0.21-12.3-5.51-12.25-12.15
		c0.05-6.48,5.21-11.77,12.07-11.93c7.82-0.19,15.64-0.04,23.73-0.04c0-18.71,0-37.16,0-56.08c-7.37,0-14.65,0.22-21.91-0.11
		c-3-0.14-6.26-0.91-8.84-2.38c-4.25-2.41-5.93-8.05-4.57-12.7c1.53-5.25,5.7-8.71,11.15-8.8c7.95-0.14,15.9-0.04,23.76-0.04
		c4.68-43.93,28.65-68.22,72.88-72.95c0-5.69,0-11.67,0-17.64c0-2.61-0.1-5.23,0.04-7.83c0.36-6.84,5.56-11.97,12.05-11.97
		c6.66-0.01,11.93,5.29,12.04,12.33c0.11,7.18,0.03,14.36,0.03,21.54c0,1.28,0,2.55,0,4.06c18.81,0,37.27,0,56.22,0
		c0-4.51,0-8.78,0-13.05c0.01-4.44-0.12-8.88,0.07-13.32c0.28-6.64,5.47-11.58,11.92-11.57c6.46,0.01,11.7,4.93,11.88,11.59
		c0.2,7.31,0.07,14.62,0.08,21.93c0,1.39,0,2.79,0,4.42c18.85,0,37.21,0,56.22,0c0-3.44,0-6.89,0-10.35c0-4.83-0.03-9.66,0.01-14.49
		c0.06-7.64,5.13-13.12,12.07-13.11c6.94,0.02,12,5.46,12.06,13.16c0.07,8.21,0.02,16.41,0.02,24.95
		c19.03,1.53,35.25,8.78,48.28,22.5c13.06,13.76,19.41,30.37,19.99,49.76c4.03,0,7.9-0.01,11.77,0c4.31,0.01,8.63-0.12,12.93,0.08
		c6.16,0.28,11.02,5.32,11.3,11.42c0.28,6.03-4.19,11.65-10.34,12.23c-5.18,0.49-10.43,0.26-15.65,0.31
		c-3.13,0.03-6.26,0.01-9.73,0.01c0,18.66,0,37.1,0,56.07c7.85,0,15.76,0,23.68,0c4.79,0,8.68,1.8,11.2,5.96
		c4.85,7.99-0.78,17.92-10.41,18.15c-8.08,0.2-16.16,0.04-24.52,0.04c0,18.71,0,37.17,0,56.19c3.6,0,7.22-0.01,10.83,0
		c5.22,0.01,10.46-0.16,15.67,0.12c6.44,0.34,11.07,5.56,11.03,11.95c-0.04,6.36-4.78,11.56-11.21,11.78
		c-7.17,0.24-14.36,0.09-21.54,0.11c-1.55,0-3.11,0-4.7,0c-5.71,39.92-28.35,62.67-68.56,68.69c0,7.19-0.25,14.73,0.07,22.25
		c0.31,7.39-2.38,12.61-9.35,15.43c-1.83,0-3.66,0-5.49,0c-7.05-2.69-9.79-7.86-9.46-15.3c0.33-7.51,0.07-15.04,0.07-22.56
		c-18.98,0-37.43,0-56.22,0c0,7.61-0.34,14.93,0.09,22.19c0.44,7.4-2.15,12.62-8.94,15.68c-2.09,0-4.18,0-6.27,0
		c-6.84-3.03-9.51-8.33-8.89-15.68c0.3-3.63,0.05-7.31,0.05-10.96c0-3.73,0-7.46,0-11.25c-19.08,0-37.54,0-56.22,0
		c0,7.73-0.25,15.17,0.07,22.59c0.32,7.43-2.39,12.62-9.46,15.31C322.22,600.58,320.39,600.58,318.57,600.58z M261.26,399.7
		c0,29.64-0.02,59.28,0.01,88.92c0.03,28.67,20.54,49.72,49.14,49.8c59.55,0.18,119.1,0.2,178.65-0.01
		c28.37-0.1,48.94-21.23,48.96-49.61c0.03-59.28,0.01-118.56-0.01-177.84c0-2.47-0.01-4.98-0.39-7.42
		c-3.92-25.45-23.54-42.01-49.95-42.03c-58.64-0.05-117.27-0.03-175.91,0.03c-3.9,0-7.87,0.24-11.67,1.01
		c-23.03,4.7-38.74,23.91-38.8,47.44C261.2,339.9,261.26,369.8,261.26,399.7z"/>
</g>
<rect x="403.07" y="351.48" class="st2" width="88.93" height="19.9"/>
<rect x="403.07" y="427.67" class="st2" width="88.93" height="19.9"/>
<rect x="411.01" y="389" class="st3" width="47.8" height="19.9"/>
<rect x="306.04" y="351.18" class="st3" width="20.34" height="19.9"/>
<path class="st2" d="M306.13,447.37v-20.9h-0.09v-20.7h0.09v-0.2h20.34v0.2h34.44c9.42,0,17.13-7.81,17.13-17.35
	s-7.71-17.35-17.13-17.35h-24.14v-19.9h24.96c20.32,0,36.94,16.84,36.94,37.41v0.47c0,20.58-16.62,37.41-36.94,37.41h-35.26v20.9
	h-20.34V447.37z"/>
</svg>
