<svg width="120" height="120" viewBox="0 0 120 120" fill="none" xmlns="http://www.w3.org/2000/svg">
  <rect width="120" height="120" rx="60" fill="#EAF2FF"/>
  <circle cx="60" cy="46" r="22" fill="#FFD9B3"/>
  <path d="M37 47C37 32 47 22 60 22C73 22 83 32 83 47V52H37V47Z" fill="#1F2A44"/>
  <ellipse cx="52" cy="46" rx="2.4" ry="2.8" fill="#222222"/>
  <ellipse cx="68" cy="46" rx="2.4" ry="2.8" fill="#222222"/>
  <path d="M53 56C55 59 58 60.5 60 60.5C62 60.5 65 59 67 56" stroke="#AA5B3D" stroke-width="2.4" stroke-linecap="round"/>
  <path d="M26 111C28 88 42 76 60 76C78 76 92 88 94 111H26Z" fill="#2563EB"/>
</svg>
