<svg width="120" height="120" viewBox="0 0 120 120" fill="none" xmlns="http://www.w3.org/2000/svg">
  <rect width="120" height="120" rx="60" fill="#FFF2E8"/>
  <circle cx="60" cy="47" r="22" fill="#FFD1A6"/>
  <path d="M40 45C40 31 49 23 60 23C71 23 80 31 80 45V50H40V45Z" fill="#5A2E12"/>
  <ellipse cx="52" cy="47" rx="2.3" ry="2.7" fill="#231F20"/>
  <ellipse cx="68" cy="47" rx="2.3" ry="2.7" fill="#231F20"/>
  <path d="M52.5 56.5C55.5 58.8 58 60 60 60C62 60 64.5 58.8 67.5 56.5" stroke="#A45737" stroke-width="2.3" stroke-linecap="round"/>
  <path d="M26 111C28 89 41 77 60 77C79 77 92 89 94 111H26Z" fill="#F97316"/>
</svg>
